<svg width="126" height="126" viewBox="0 0 126 126" fill="none" xmlns="http://www.w3.org/2000/svg">
<path id="stars" d="M69.1095 18.2621L78.2546 3.58708L79.1989 20.8526L79.2582 21.9366L80.0434 21.187L92.5508 9.24732L89.1716 26.2053L88.9594 27.2699L89.9064 26.7392L104.99 18.285L97.4998 33.8699L97.0296 34.8483L98.0788 34.5697L114.791 30.1324L103.66 43.3648L102.962 44.1955L104.047 44.1866L121.338 44.0449L107.266 54.0935L106.383 54.7243L107.436 54.9857L124.219 59.1484L108.09 65.3818L107.078 65.7731L108.033 66.2883L123.254 74.494L106.081 76.5205L105.003 76.6477L105.801 77.3843L118.502 89.1173L101.365 86.8096L100.29 86.6647L100.879 87.5765L110.263 102.1L94.2389 95.6027L93.2329 95.1948L93.5768 96.2244L99.0548 112.625L85.1495 102.347L84.2766 101.702L84.3536 102.785L85.5808 120.033L74.6684 106.619L73.9833 105.777L73.7887 106.845L70.6879 123.856L63.4541 108.151L63 107.165L62.5459 108.151L55.3121 123.856L52.2113 106.845L52.0167 105.777L51.3316 106.619L40.4192 120.033L41.6464 102.785L41.7234 101.702L40.8505 102.347L26.9452 112.625L32.4232 96.2244L32.7671 95.1948L31.7611 95.6027L15.7367 102.1L25.1212 87.5765L25.7104 86.6647L24.6346 86.8096L7.49789 89.1173L20.1994 77.3843L20.9968 76.6477L19.9187 76.5205L2.74647 74.494L17.9668 66.2883L18.9223 65.7731L17.9098 65.3818L1.78101 59.1484L18.5638 54.9857L19.6175 54.7243L18.734 54.0935L4.66216 44.0449L21.9529 44.1866L23.0385 44.1955L22.3397 43.3648L11.2089 30.1324L27.9212 34.5697L28.9704 34.8483L28.5002 33.8699L21.0099 18.285L36.0936 26.7392L37.0406 27.2699L36.8284 26.2053L33.4492 9.24732L45.9566 21.187L46.7418 21.9366L46.8011 20.8526L47.7453 3.58708L56.8905 18.2621L57.4647 19.1834L57.7917 18.1483L63 1.65997L68.2083 18.1483L68.5353 19.1834L69.1095 18.2621Z" fill="#BD8AFF" stroke="black"/>
</svg>
