<svg width="300" height="299" viewBox="0 0 300 299" fill="none" xmlns="http://www.w3.org/2000/svg">
<path d="M155.141 105.382L156.117 105.505L184.977 13.7721L166.075 108.062L166.99 108.424L217.757 26.7505L176 113.377L176.796 113.956L246.279 47.473L184.291 120.994L184.918 121.752L268.752 74.6378L190.427 130.433L190.846 131.323L283.763 106.538L194.023 141.101L194.208 142.068L290.369 141.169L194.853 152.329L194.791 153.311L288.155 176.355L192.865 163.41L192.561 164.346L277.261 209.884L188.183 173.649L187.656 174.48L258.37 239.652L181.102 182.402L180.385 183.075L232.67 263.786L172.067 189.119L171.205 189.593L201.775 280.77L161.645 193.378L160.692 193.622L167.628 289.538L150.492 194.911H149.508L132.372 289.538L139.308 193.622L138.355 193.378L98.2245 280.77L128.795 189.593L127.933 189.119L67.33 263.786L119.615 183.075L118.898 182.402L41.63 239.651L112.344 174.48L111.817 173.649L22.7391 209.884L107.439 164.346L107.135 163.41L11.8446 176.355L105.209 153.311L105.147 152.329L9.631 141.169L105.792 142.068L105.977 141.101L16.2371 106.538L109.154 131.323L109.573 130.433L31.2481 74.6378L115.082 121.752L115.709 120.994L53.7207 47.473L123.204 113.956L124 113.377L82.243 26.7504L133.01 108.424L133.925 108.062L115.023 13.772L143.883 105.505L144.859 105.382L150 9.3533L155.141 105.382Z" fill="white" stroke="#303030"/>
</svg>
